<svg viewBox="0 0 40 40" fill="none" stroke="white" stroke-width="2" stroke-linecap="round" stroke-linejoin="round" xmlns="http://www.w3.org/2000/svg">
  <!-- Pitaya -->
  <ellipse cx="20" cy="22" rx="10" ry="12"/>
  <!-- Escamas da pitaya -->
  <path d="M10 18C12 16 14 18 14 18"/>
  <path d="M14 14C16 12 18 14 18 14"/>
  <path d="M22 14C24 12 26 14 26 14"/>
  <path d="M26 18C28 16 30 18 30 18"/>
  <path d="M12 24C14 22 16 24 16 24"/>
  <path d="M24 24C26 22 28 24 28 24"/>
  <path d="M16 28C18 26 20 28 20 28"/>
  <path d="M20 28C22 26 24 28 24 28"/>
  <!-- Folhas do topo -->
  <path d="M16 10C16 6 20 4 20 4"/>
  <path d="M24 10C24 6 20 4 20 4"/>
  <path d="M20 10C20 6 20 2 20 2"/>
</svg>

