<svg viewBox="0 0 40 40" fill="none" stroke="white" stroke-width="2" stroke-linecap="round" stroke-linejoin="round" xmlns="http://www.w3.org/2000/svg">
  <!-- Selo estilizado com ondas -->
  <path d="M20 4L22.5 7.5L27 6L27.5 10.5L32 12L30 16L34 20L30 24L32 28L27.5 29.5L27 34L22.5 32.5L20 36L17.5 32.5L13 34L12.5 29.5L8 28L10 24L6 20L10 16L8 12L12.5 10.5L13 6L17.5 7.5L20 4Z"/>
  <!-- Símbolo % -->
  <circle cx="15" cy="16" r="2.5" fill="white"/>
  <circle cx="25" cy="24" r="2.5" fill="white"/>
  <path d="M27 13L13 27" stroke-width="2.5"/>
</svg>
